<svg xmlns="http://www.w3.org/2000/svg" viewBox="0 0 100 100" width="100%" height="100%">
  <defs>
    <linearGradient id="sun-grad" x1="0%" y1="0%" x2="100%" y2="100%">
      <stop offset="0%" stop-color="#F5C518"/>
      <stop offset="100%" stop-color="#E87F20"/>
    </linearGradient>
  </defs>
  <!-- Sun rays -->
  <path d="M50 5 L50 20 M50 80 L50 95 M5 50 L20 50 M80 50 L95 50 M18 18 L28 28 M72 72 L82 82 M18 82 L28 72 M72 18 L82 28" 
        stroke="url(#sun-grad)" stroke-width="6" stroke-linecap="round"/>
  <!-- Book representing sun core -->
  <circle cx="50" cy="50" r="22" fill="#2DBDAD" opacity="0.1"/>
  <path d="M40 55 C40 45, 45 40, 50 40 C55 40, 60 45, 60 55 L50 60 Z" fill="url(#sun-grad)"/>
  <path d="M35 50 C35 40, 45 35, 50 35 C55 35, 65 40, 65 50 L50 55 Z" fill="#2DBDAD" opacity="0.8"/>
  <path d="M50 35 L50 55" stroke="#fff" stroke-width="2" stroke-linecap="round"/>
</svg>
